<?xml version="1.0" encoding="utf-8"?>
<!-- Generator: Adobe Illustrator 25.2.1, SVG Export Plug-In . SVG Version: 6.00 Build 0)  -->
<svg version="1.1" id="Lager_1" xmlns="http://www.w3.org/2000/svg" xmlns:xlink="http://www.w3.org/1999/xlink" x="0px" y="0px"
	 viewBox="0 0 513.7 166.4" style="enable-background:new 0 0 513.7 166.4;" xml:space="preserve">
<style type="text/css">
	.st0{fill:#B3B3B3;}
</style>
<g>
	<path class="st0" d="M513.7,158.6c0,1.2-0.2,2.2-0.6,3.2c-0.4,1-1,1.8-1.7,2.5c-0.7,0.7-1.5,1.2-2.4,1.6c-0.9,0.4-1.9,0.6-2.9,0.6
		c-1.1,0-2.2-0.2-3.1-0.6c-0.9-0.4-1.7-0.9-2.4-1.6c-0.7-0.7-1.2-1.5-1.6-2.5s-0.6-2-0.6-3.1c0-1.2,0.2-2.2,0.6-3.2
		c0.4-1,1-1.8,1.7-2.5c0.7-0.7,1.5-1.2,2.4-1.6c0.9-0.4,1.9-0.6,2.9-0.6c1,0,2,0.2,2.9,0.6c0.9,0.4,1.7,0.9,2.4,1.6
		c0.7,0.7,1.3,1.5,1.7,2.5C513.5,156.3,513.7,157.4,513.7,158.6z M512,158.6c0-0.9-0.2-1.8-0.5-2.6c-0.3-0.8-0.7-1.5-1.3-2
		c-0.5-0.6-1.2-1-1.9-1.3c-0.7-0.3-1.5-0.5-2.3-0.5c-0.8,0-1.6,0.2-2.4,0.5c-0.7,0.3-1.4,0.8-1.9,1.3c-0.5,0.6-1,1.3-1.3,2
		c-0.3,0.8-0.5,1.7-0.5,2.6c0,0.9,0.1,1.7,0.4,2.5c0.3,0.8,0.7,1.5,1.2,2c0.5,0.6,1.2,1,1.9,1.4c0.7,0.3,1.6,0.5,2.5,0.5
		c0.8,0,1.6-0.2,2.3-0.5c0.7-0.3,1.4-0.8,1.9-1.3c0.5-0.6,1-1.3,1.3-2S512,159.5,512,158.6z M504.5,163h-1.4v-8.6h3.3
		c1,0,1.8,0.2,2.4,0.6s0.8,1,0.8,1.9c0,0.8-0.2,1.3-0.6,1.7c-0.4,0.4-1,0.6-1.6,0.6l2.4,3.8h-1.6l-2.2-3.7h-1.3V163z M506.1,158.1
		c0.3,0,0.5,0,0.8,0c0.2,0,0.5-0.1,0.6-0.2c0.2-0.1,0.3-0.2,0.4-0.4c0.1-0.2,0.2-0.4,0.2-0.7c0-0.3-0.1-0.5-0.2-0.6
		c-0.1-0.2-0.3-0.3-0.4-0.4c-0.2-0.1-0.4-0.1-0.6-0.2c-0.2,0-0.4,0-0.6,0h-1.7v2.5H506.1z"/>
</g>
<g>
	<polygon class="st0" points="318.4,166.4 359,166.4 359,62.7 432.6,166.4 473.2,166.4 473.2,0 432.6,0 432.5,81.2 374.7,0 337.1,0 
		318.4,35.9 	"/>
	<polygon class="st0" points="135.4,0 4.5,0 4.5,40.6 81.9,40.6 0,126.4 0,166.4 154.7,166.4 154.7,125.8 68.6,125.8 154.6,35.9 	
		"/>
	<polygon class="st0" points="264.3,166.4 264.3,117 325.3,0 271.4,0 236.4,72.7 201.4,0 147.5,0 208.5,117 208.5,166.4 	"/>
</g>
</svg>
